<?xml version="1.0" encoding="UTF-8"?>
<svg id="Capa_1" data-name="Capa 1" xmlns="http://www.w3.org/2000/svg" viewBox="0 0 303.67 160.72">
  <defs>
    <style>
      .cls-1 {
        fill: #fff;
      }
    </style>
  </defs>
  <path class="cls-1" d="M297.43,49.13c-4.14-9.68-9.9-18.28-17.11-25.54-7.22-7.27-15.82-13.08-25.54-17.27-9.7-4.19-20.26-6.31-31.32-6.31s-21.41,2.13-31.06,6.31c-9.68,4.19-18.27,10-25.54,17.27-2.7,2.7-5.16,5.62-7.45,8.69l17.86,35.13c.55-1.97,1.19-3.91,2-5.78,2.5-5.8,5.97-10.93,10.32-15.23,4.35-4.29,9.5-7.73,15.28-10.22,11.78-5.09,25.75-5,37.33,0,5.8,2.51,10.93,5.95,15.2,10.23,4.31,4.29,7.72,9.42,10.16,15.25,2.45,5.81,3.72,12.12,3.72,18.72s-1.27,12.73-3.72,18.55c-2.43,5.82-5.84,10.97-10.14,15.31-4.29,4.36-9.42,7.84-15.22,10.34-5.82,2.51-12.15,3.78-18.75,3.78s-12.9-1.27-18.67-3.8c-5.73-2.48-10.85-5.95-15.2-10.31-4.35-4.35-7.81-9.49-10.32-15.3-.1-.24-.17-.48-.27-.72l-.03.02-27.49-54.89c-3.8-7.32-8.54-13.99-14.26-19.76-7.22-7.27-15.8-13.08-25.53-17.27-9.72-4.19-20.26-6.31-31.32-6.31s-21.4,2.13-31.07,6.31c-9.66,4.19-18.27,10-25.54,17.27-7.28,7.29-13.12,15.88-17.38,25.57C2.15,58.8,0,69.3,0,80.37s2.15,21.44,6.39,31.13c4.26,9.76,10.11,18.4,17.38,25.65,7.25,7.27,15.86,13.09,25.54,17.29,19.41,8.41,43.06,8.33,62.39,0,9.73-4.2,18.32-10,25.52-17.28,2.69-2.7,5.13-5.62,7.39-8.7l-18.1-35.6c-.55,2.06-1.19,4.09-2.02,6.06-2.44,5.82-5.85,10.97-10.15,15.31-4.29,4.36-9.4,7.84-15.21,10.34-5.85,2.51-12.14,3.78-18.74,3.78s-12.91-1.27-18.68-3.8c-5.73-2.48-10.84-5.95-15.21-10.31-4.34-4.35-7.81-9.49-10.3-15.3-2.53-5.81-3.82-12.06-3.82-18.57s1.29-12.92,3.82-18.75c2.49-5.8,5.97-10.93,10.31-15.23,4.36-4.29,9.52-7.73,15.31-10.22,11.77-5.09,25.74-5,37.31,0,5.8,2.51,10.92,5.95,15.2,10.23,3.74,3.74,6.78,8.17,9.13,13.1l.05-.03,28.44,57.05c3.97,7.69,8.93,14.64,14.92,20.63,7.27,7.27,15.86,13.09,25.54,17.29,19.42,8.41,43.06,8.33,62.38,0,9.72-4.2,18.32-10,25.54-17.28,7.2-7.24,12.96-15.87,17.11-25.62,4.13-9.73,6.23-20.19,6.23-31.16s-2.1-21.58-6.23-31.24Z"/>
  <circle class="cls-1" cx="80.27" cy="80.36" r="17.8"/>
  <circle class="cls-1" cx="223.39" cy="80.36" r="17.8"/>
</svg>