<?xml version="1.0" encoding="UTF-8"?>
<svg id="Capa_1" data-name="Capa 1" xmlns="http://www.w3.org/2000/svg" viewBox="0 0 679.25 119.6">
  <defs>
    <style>
      .cls-1 {
        fill: #fff;
      }
    </style>
  </defs>
  <path class="cls-1" d="M336.22,60.05c-3.29-2.81-7.17-5.22-11.52-7.18-4.48-2-9.23-3.78-14.13-5.27-3.06-.94-5.88-1.79-8.48-2.55-2.69-.79-5.01-1.65-6.92-2.53-2.03-.94-3.68-2.05-4.9-3.28-1.45-1.43-2.19-3.26-2.19-5.41,0-3.8,1.86-6.77,5.35-8.6,3.17-1.65,7.59-2.46,13.5-2.46,2.31,0,4.42.16,6.27.48,1.86.31,3.66.8,5.35,1.43,1.66.63,3.29,1.4,4.88,2.3,1.51.87,3.17,1.86,4.97,2.98,2.58,1.03,5.34.88,7.61-.23,1.32-.63,2.51-1.55,3.53-2.7,1.29-1.44,2.06-3.26,2.41-5.57.32-2.3-.06-4.59-1.18-6.98-1.28-2.45-3.18-4.65-5.64-6.45-2.56-1.89-5.51-3.43-8.75-4.59-3.3-1.17-6.85-2.05-10.54-2.57-10.17-1.48-19.5-.94-27.33,1.58-4.94,1.57-9.25,3.86-12.82,6.8-3.55,2.91-6.37,6.47-8.35,10.57-1.99,4.09-3,8.71-3,13.75s.97,8.98,2.88,12.36c1.94,3.48,4.48,6.51,7.52,9.03,3.09,2.57,6.56,4.78,10.32,6.57,3.83,1.84,7.63,3.56,11.27,5.08l7.32,2.43c3.02,1.01,5.92,2.17,8.65,3.47,2.8,1.34,5.24,2.81,7.22,4.39,2.36,1.9,3.56,4.06,3.56,6.47,0,1.95-.55,3.72-1.65,5.24-1.01,1.41-2.37,2.63-4.06,3.62-1.59.95-3.45,1.69-5.5,2.2-4.24,1.05-9.35.97-13.76-.06-2.3-.54-4.49-1.31-6.46-2.26-1.98-.94-3.82-2.05-5.45-3.26-1.66-1.24-3.07-2.58-4.19-3.99-1.81-1.55-3.85-2.88-5.84-3.68-1.96-.79-3.86-1.2-5.64-1.2-1.98,0-3.73.42-5.38,1.3-1.59.85-2.8,2-3.69,3.52-.9,1.54-1.33,3.3-1.33,5.39s.69,4.41,2.05,6.91c2.01,3.85,4.66,7.09,7.92,9.67,3.33,2.64,7.02,4.83,10.96,6.5,3.96,1.68,8.11,2.88,12.32,3.57,11.04,1.81,20.62,1.27,28.81-1.69,5.02-1.83,9.42-4.35,13.05-7.5,3.6-3.12,6.47-6.84,8.52-11.05,2.02-4.17,3.05-8.72,3.05-13.51,0-5.18-.96-9.66-2.84-13.32-1.92-3.71-4.53-6.99-7.76-9.74Z"/>
  <path class="cls-1" d="M453.05,84.99c-3.56-3.21-8.03-3.79-11.97-1.81-1.61.8-3.08,1.83-4.38,3.05-3.21,2.85-6.71,4.89-10.44,6.12-7.85,2.57-17.69,2.5-25.71-.89-4.26-1.79-8.02-4.26-11.17-7.37-3.13-3.1-5.68-6.78-7.5-10.96-1.85-4.2-2.79-8.74-2.79-13.5v-20.79h37.43c1.67,0,3.27-.31,4.71-.93,1.47-.63,2.78-1.48,3.86-2.54,1.08-1.04,1.94-2.29,2.56-3.71.61-1.41.93-2.91.93-4.51s-.31-3.26-.93-4.71c-.61-1.46-1.49-2.76-2.57-3.83-1.08-1.1-2.38-1.96-3.84-2.59-1.45-.62-3.05-.93-4.71-.93h-37.43v-3.02c0-1.68-.31-3.26-.92-4.71-.63-1.46-1.48-2.78-2.53-3.87-1.05-1.08-2.29-1.94-3.71-2.56-1.4-.61-2.92-.93-4.51-.93s-3.13.32-4.58.94c-1.48.63-2.73,1.47-3.85,2.57-1.1,1.11-1.99,2.42-2.65,3.89-.65,1.43-.97,3-.97,4.67v47.3c0,8.12,1.55,15.83,4.61,22.9,3.08,7.09,7.34,13.35,12.66,18.59,5.34,5.25,11.64,9.45,18.73,12.49,7.08,3.02,14.79,4.56,22.91,4.56,7.39,0,14.37-1.21,20.76-3.62,6.34-2.41,12.05-6.03,16.94-10.76,1.36-1.28,2.41-2.74,3.15-4.38.74-1.65,1.17-3.37,1.29-5.11.11-1.73-.12-3.42-.66-5.05-.53-1.55-1.42-2.87-2.7-4.01Z"/>
  <path class="cls-1" d="M674.68,36.04c-3.03-7.1-7.26-13.4-12.54-18.72-5.29-5.33-11.59-9.59-18.72-12.66-7.11-3.07-14.85-4.63-22.96-4.63s-15.69,1.56-22.77,4.63c-7.1,3.07-13.4,7.33-18.72,12.66-1.98,1.98-3.78,4.12-5.46,6.37l13.09,25.75c.41-1.44.87-2.86,1.47-4.24,1.83-4.25,4.38-8.01,7.57-11.16,3.19-3.14,6.97-5.66,11.2-7.49,8.64-3.73,18.87-3.66,27.36,0,4.25,1.84,8.01,4.36,11.14,7.5,3.16,3.14,5.66,6.91,7.45,11.18,1.8,4.26,2.73,8.88,2.73,13.72s-.93,9.33-2.73,13.6c-1.78,4.27-4.28,8.04-7.43,11.22-3.14,3.19-6.9,5.75-11.15,7.58-4.27,1.84-8.9,2.77-13.75,2.77s-9.45-.93-13.69-2.78c-4.2-1.82-7.95-4.36-11.14-7.56-3.19-3.19-5.73-6.96-7.56-11.22-.08-.17-.13-.35-.2-.53h-.02s-20.15-40.23-20.15-40.23c-2.79-5.37-6.26-10.25-10.46-14.48-5.29-5.33-11.58-9.59-18.72-12.66-7.12-3.07-14.85-4.63-22.96-4.63s-15.69,1.56-22.78,4.63c-7.08,3.07-13.39,7.33-18.72,12.66-5.33,5.34-9.62,11.64-12.74,18.74-3.11,7.07-4.68,14.77-4.68,22.88s1.57,15.72,4.68,22.82c3.12,7.16,7.41,13.49,12.74,18.8,5.32,5.33,11.63,9.59,18.72,12.67,14.23,6.17,31.57,6.1,45.74,0,7.13-3.08,13.43-7.33,18.71-12.67,1.97-1.98,3.76-4.12,5.42-6.38l-13.27-26.1c-.4,1.51-.87,3-1.48,4.44-1.79,4.27-4.29,8.04-7.44,11.22-3.14,3.19-6.89,5.75-11.15,7.58-4.29,1.84-8.9,2.77-13.74,2.77s-9.46-.93-13.69-2.78c-4.2-1.82-7.95-4.36-11.15-7.56-3.18-3.19-5.73-6.96-7.55-11.22-1.85-4.26-2.8-8.84-2.8-13.61s.95-9.47,2.8-13.74c1.82-4.25,4.38-8.01,7.56-11.16,3.2-3.14,6.98-5.66,11.22-7.49,8.63-3.73,18.87-3.66,27.35,0,4.25,1.84,8,4.36,11.15,7.5,2.74,2.74,4.97,5.99,6.7,9.6l.04-.02,20.85,41.82c2.91,5.64,6.55,10.73,10.93,15.12,5.33,5.33,11.63,9.59,18.72,12.67,14.23,6.17,31.56,6.1,45.73,0,7.13-3.08,13.43-7.33,18.72-12.67,5.28-5.31,9.5-11.63,12.54-18.78,3.03-7.13,4.57-14.8,4.57-22.84s-1.54-15.82-4.57-22.9Z"/>
  <circle class="cls-1" cx="515.49" cy="58.93" r="13.05"/>
  <circle class="cls-1" cx="620.4" cy="58.93" r="13.05"/>
  <path class="cls-1" d="M120.91,45.88l-37.74.03c-6.35.07-11.43,4.69-11.36,11.04h0c.07,6.35,5.28,10.46,11.63,10.38l12.38-.05c-.64,1.55-1.38,3.32-2.16,5.07-5.88,13.31-18.19,23.42-33.69,23.42-.04,0-.07,0-.1,0-.04,0-.09,0-.13,0,0,0,0,0-.01,0,0,0,0,0-.01,0-.01,0-.02,0-.04,0-.15,0-.28-.03-.43-.04-1.53-.03-3.02-.17-4.5-.38-.16-.02-.33-.02-.49-.04-.37-.06-.73-.1-1.09-.17-.1-.02-.19-.05-.28-.07-1.33-.26-2.64-.61-3.91-1.02-.19-.06-.4-.09-.59-.15-.45-.15-.88-.32-1.32-.48-.23-.09-.44-.21-.67-.3-.52-.21-1.01-.45-1.52-.68-.65-.29-1.33-.54-1.96-.88-.44-.24-.86-.5-1.29-.76-.43-.26-.84-.56-1.26-.83-.27-.18-.55-.36-.82-.54-.31-.22-.65-.41-.95-.63-.5-.36-1-.72-1.47-1.1-1.06-.87-2.06-1.8-3.01-2.78-.53-.54-1.02-1.1-1.52-1.67-.62-.73-1.21-1.49-1.77-2.27-.15-.21-.27-.43-.42-.64-.2-.3-.39-.6-.59-.9-.3-.46-.62-.91-.91-1.39-.37-.62-.72-1.26-1.05-1.9-.19-.37-.32-.78-.5-1.16-.28-.6-.54-1.2-.79-1.82-.13-.33-.3-.65-.42-.99-.22-.61-.46-1.21-.65-1.83-.14-.47-.36-.91-.49-1.39h.13c-.1-.37-.14-.76-.23-1.14-.09-.39-.16-.79-.24-1.19-.43-2.18-.73-4.41-.73-6.72,0-4.37.82-8.55,2.25-12.42h-.13c.17-.48.43-.91.63-1.37.13-.32.29-.62.43-.93.69-1.54,1.48-3.01,2.38-4.42.31-.49.62-.97.95-1.44.49-.7.99-1.39,1.53-2.05.72-.89,1.49-1.74,2.29-2.56.55-.56,1.13-1.08,1.72-1.6.65-.58,1.32-1.13,2.01-1.67.51-.39,1.01-.79,1.55-1.16,1.13-.78,2.31-1.48,3.53-2.13.48-.25.97-.48,1.46-.71,1.08-.51,2.18-.96,3.31-1.36.37-.13.72-.28,1.09-.4,1.47-.47,2.98-.81,4.52-1.09.42-.07.84-.13,1.26-.19,1.62-.23,3.26-.39,4.94-.39.02,0,.03,0,.05,0,0,0,0,0,.01,0s0,0,.01,0c1.73,0,3.41.16,5.07.4.36.05.71.1,1.06.16.98.17,1.92.45,2.88.69,7.06,2.63,13.04,7.47,13.04,7.47,6.51,2.36,13.7-1,16.07-7.5,2.55-6.98-2.36-12.7-8.69-16.47,0,0-7.44-4.57-14.84-6.72-.25-.07-.48-.18-.74-.24-.4-.1-.82-.15-1.22-.24-.57-.13-1.16-.29-1.72-.38-.05,0-.1.02-.15.01-5.35-.98-10.93-1.29-16.68-.74C26.12,3.1,3.46,25.38.38,53.04c-4.01,36.04,24.1,66.56,59.34,66.56,19.74,0,37.16-9.64,48.03-24.41.01,0,.05.01.06,0,.15-.21,1.23-1.61,2.74-3.75v11.2c.21,6.34,4.36,11.3,10.7,11.08,6.34-.23,10.91-5.55,10.69-11.9v-46.42c-.22-6.24-4.79-9.59-11.03-9.51Z"/>
  <path class="cls-1" d="M197.02.21c-30.74,1.17-56.18,26.61-57.34,57.35-1.29,34.04,25.92,62.04,59.67,62.04,11.88,0,22.93-3.49,32.21-9.49,6.78-4.38,6.97-14.28.62-19.26-4.04-3.17-9.59-3.3-13.94-.55-5.47,3.46-11.93,5.47-18.89,5.47-16.69,0-30.67-11.41-34.69-26.84h85.24c4.98,0,9.1-4.07,9.16-9.05,0-33.75-28.01-60.97-62.05-59.67ZM165.72,45.88c5.06-13.69,18.19-21.88,33.63-21.88s28.57,8.2,33.63,21.88h-67.27Z"/>
</svg>